{
    "asset" : {
        "generator" : "Khronos glTF Blender I/O v1.7.33",
        "version" : "2.0"
    },
    "scene" : 0,
    "scenes" : [
        {
            "name" : "Scene",
            "nodes" : [
                0,
                1,
                2,
                3,
                4
            ]
        }
    ],
    "nodes" : [
        {
            "mesh" : 0,
            "name" : "body"
        },
        {
            "mesh" : 1,
            "name" : "legs"
        },
        {
            "mesh" : 2,
            "name" : "hands"
        },
        {
            "mesh" : 3,
            "name" : "Reye",
            "translation" : [
                0.5255079865455627,
                0.35896098613739014,
                0.18408599495887756
            ]
        },
        {
            "mesh" : 4,
            "name" : "Leye",
            "translation" : [
                -0.5372909903526306,
                0.35896065831184387,
                0.18408632278442383
            ]
        }
    ],
    "animations" : [
        {
            "channels" : [
                {
                    "sampler" : 0,
                    "target" : {
                        "node" : 0,
                        "path" : "weights"
                    }
                },
                {
                    "sampler" : 1,
                    "target" : {
                        "node" : 1,
                        "path" : "weights"
                    }
                },
                {
                    "sampler" : 2,
                    "target" : {
                        "node" : 2,
                        "path" : "weights"
                    }
                },
                {
                    "sampler" : 3,
                    "target" : {
                        "node" : 3,
                        "path" : "weights"
                    }
                },
                {
                    "sampler" : 4,
                    "target" : {
                        "node" : 4,
                        "path" : "weights"
                    }
                }
            ],
            "name" : "Animation",
            "samplers" : [
                {
                    "input" : 39,
                    "interpolation" : "LINEAR",
                    "output" : 40
                },
                {
                    "input" : 39,
                    "interpolation" : "LINEAR",
                    "output" : 41
                },
                {
                    "input" : 39,
                    "interpolation" : "LINEAR",
                    "output" : 42
                },
                {
                    "input" : 39,
                    "interpolation" : "LINEAR",
                    "output" : 43
                },
                {
                    "input" : 39,
                    "interpolation" : "LINEAR",
                    "output" : 44
                }
            ]
        }
    ],
    "materials" : [
        {
            "doubleSided" : true,
            "name" : "heart",
            "pbrMetallicRoughness" : {
                "baseColorFactor" : [
                    1,
                    0.0418660007417202,
                    0.05154984071850777,
                    1
                ],
                "metallicFactor" : 0,
                "roughnessFactor" : 0.4000000059604645
            }
        },
        {
            "doubleSided" : true,
            "name" : "eye",
            "pbrMetallicRoughness" : {
                "baseColorTexture" : {
                    "index" : 0
                },
                "metallicFactor" : 0,
                "roughnessFactor" : 0.17142856121063232
            }
        }
    ],
    "meshes" : [
        {
            "extras" : {
                "targetNames" : [
                    "idle",
                    "sad"
                ]
            },
            "name" : "Torus.001",
            "primitives" : [
                {
                    "attributes" : {
                        "POSITION" : 0,
                        "NORMAL" : 1,
                        "TEXCOORD_0" : 2
                    },
                    "indices" : 3,
                    "material" : 0,
                    "targets" : [
                        {
                            "POSITION" : 4,
                            "NORMAL" : 5
                        },
                        {
                            "POSITION" : 6,
                            "NORMAL" : 7
                        }
                    ]
                }
            ],
            "weights" : [
                0,
                0
            ]
        },
        {
            "extras" : {
                "targetNames" : [
                    "idle",
                    "sad"
                ]
            },
            "name" : "Cube",
            "primitives" : [
                {
                    "attributes" : {
                        "POSITION" : 8,
                        "NORMAL" : 9,
                        "TEXCOORD_0" : 10
                    },
                    "indices" : 11,
                    "material" : 0,
                    "targets" : [
                        {
                            "POSITION" : 12,
                            "NORMAL" : 13
                        },
                        {
                            "POSITION" : 14,
                            "NORMAL" : 15
                        }
                    ]
                }
            ],
            "weights" : [
                0,
                0
            ]
        },
        {
            "extras" : {
                "targetNames" : [
                    "idle",
                    "sad"
                ]
            },
            "name" : "Cube.002",
            "primitives" : [
                {
                    "attributes" : {
                        "POSITION" : 16,
                        "NORMAL" : 17,
                        "TEXCOORD_0" : 18
                    },
                    "indices" : 19,
                    "material" : 0,
                    "targets" : [
                        {
                            "POSITION" : 20,
                            "NORMAL" : 21
                        },
                        {
                            "POSITION" : 22,
                            "NORMAL" : 23
                        }
                    ]
                }
            ],
            "weights" : [
                0,
                0
            ]
        },
        {
            "extras" : {
                "targetNames" : [
                    "idle",
                    "sad"
                ]
            },
            "name" : "Sphere.002",
            "primitives" : [
                {
                    "attributes" : {
                        "POSITION" : 24,
                        "NORMAL" : 25,
                        "TEXCOORD_0" : 26
                    },
                    "indices" : 27,
                    "material" : 1,
                    "targets" : [
                        {
                            "POSITION" : 28,
                            "NORMAL" : 29
                        },
                        {
                            "POSITION" : 30,
                            "NORMAL" : 31
                        }
                    ]
                }
            ],
            "weights" : [
                0,
                0
            ]
        },
        {
            "extras" : {
                "targetNames" : [
                    "idle",
                    "sad"
                ]
            },
            "name" : "Sphere.004",
            "primitives" : [
                {
                    "attributes" : {
                        "POSITION" : 32,
                        "NORMAL" : 33,
                        "TEXCOORD_0" : 34
                    },
                    "indices" : 27,
                    "material" : 1,
                    "targets" : [
                        {
                            "POSITION" : 35,
                            "NORMAL" : 36
                        },
                        {
                            "POSITION" : 37,
                            "NORMAL" : 38
                        }
                    ]
                }
            ],
            "weights" : [
                0,
                0
            ]
        }
    ],
    "textures" : [
        {
            "sampler" : 0,
            "source" : 0
        }
    ],
    "images" : [
        {
            "bufferView" : 28,
            "mimeType" : "image/png",
            "name" : "eyetex"
        }
    ],
    "accessors" : [
        {
            "bufferView" : 0,
            "componentType" : 5126,
            "count" : 706,
            "max" : [
                1.0918865203857422,
                0.9417471289634705,
                0.43901342153549194
            ],
            "min" : [
                -1.0918866395950317,
                -0.7032672762870789,
                -0.5106278657913208
            ],
            "type" : "VEC3"
        },
        {
            "bufferView" : 1,
            "componentType" : 5126,
            "count" : 706,
            "type" : "VEC3"
        },
        {
            "bufferView" : 2,
            "componentType" : 5126,
            "count" : 706,
            "type" : "VEC2"
        },
        {
            "bufferView" : 3,
            "componentType" : 5123,
            "count" : 3654,
            "type" : "SCALAR"
        },
        {
            "bufferView" : 4,
            "componentType" : 5126,
            "count" : 706,
            "max" : [
                0,
                0.05406123399734497,
                0
            ],
            "min" : [
                0,
                0.054061159491539,
                0
            ],
            "type" : "VEC3"
        },
        {
            "bufferView" : 5,
            "componentType" : 5126,
            "count" : 706,
            "type" : "VEC3"
        },
        {
            "bufferView" : 6,
            "componentType" : 5126,
            "count" : 706,
            "max" : [
                0.04384419322013855,
                0.10010066628456116,
                0.11060947179794312
            ],
            "min" : [
                -0.06317406892776489,
                -0.1110905110836029,
                -0.00587087869644165
            ],
            "type" : "VEC3"
        },
        {
            "bufferView" : 7,
            "componentType" : 5126,
            "count" : 706,
            "type" : "VEC3"
        },
        {
            "bufferView" : 8,
            "componentType" : 5126,
            "count" : 238,
            "max" : [
                0.18182766437530518,
                -0.5260623693466187,
                0.02470322884619236
            ],
            "min" : [
                -0.18182766437530518,
                -0.9442476630210876,
                -0.13057589530944824
            ],
            "type" : "VEC3"
        },
        {
            "bufferView" : 9,
            "componentType" : 5126,
            "count" : 238,
            "type" : "VEC3"
        },
        {
            "bufferView" : 10,
            "componentType" : 5126,
            "count" : 238,
            "type" : "VEC2"
        },
        {
            "bufferView" : 11,
            "componentType" : 5123,
            "count" : 1008,
            "type" : "SCALAR"
        },
        {
            "bufferView" : 12,
            "componentType" : 5126,
            "count" : 238,
            "max" : [
                0,
                0.10447216033935547,
                0
            ],
            "min" : [
                0,
                0.06224769353866577,
                -0.05318521335721016
            ],
            "type" : "VEC3"
        },
        {
            "bufferView" : 13,
            "componentType" : 5126,
            "count" : 238,
            "type" : "VEC3"
        },
        {
            "bufferView" : 14,
            "componentType" : 5126,
            "count" : 238,
            "max" : [
                0,
                0,
                0
            ],
            "min" : [
                0,
                0,
                0
            ],
            "type" : "VEC3"
        },
        {
            "bufferView" : 15,
            "componentType" : 5126,
            "count" : 238,
            "type" : "VEC3"
        },
        {
            "bufferView" : 16,
            "componentType" : 5126,
            "count" : 438,
            "max" : [
                0.36499565839767456,
                -0.34008511900901794,
                0.24493977427482605
            ],
            "min" : [
                -0.3643453121185303,
                -0.6992372274398804,
                0.08748782426118851
            ],
            "type" : "VEC3"
        },
        {
            "bufferView" : 17,
            "componentType" : 5126,
            "count" : 438,
            "type" : "VEC3"
        },
        {
            "bufferView" : 18,
            "componentType" : 5126,
            "count" : 438,
            "type" : "VEC2"
        },
        {
            "bufferView" : 19,
            "componentType" : 5123,
            "count" : 1872,
            "type" : "SCALAR"
        },
        {
            "bufferView" : 20,
            "componentType" : 5126,
            "count" : 438,
            "max" : [
                0,
                0.06835776567459106,
                0
            ],
            "min" : [
                0,
                0.055978596210479736,
                -0.028777718544006348
            ],
            "type" : "VEC3"
        },
        {
            "bufferView" : 21,
            "componentType" : 5126,
            "count" : 438,
            "type" : "VEC3"
        },
        {
            "bufferView" : 22,
            "componentType" : 5126,
            "count" : 438,
            "max" : [
                0.3231181502342224,
                0.28539472818374634,
                0.22512376308441162
            ],
            "min" : [
                -0.33167141675949097,
                -0.0916576087474823,
                0.023679010570049286
            ],
            "type" : "VEC3"
        },
        {
            "bufferView" : 23,
            "componentType" : 5126,
            "count" : 438,
            "type" : "VEC3"
        },
        {
            "bufferView" : 24,
            "componentType" : 5126,
            "count" : 112,
            "max" : [
                0.3367387652397156,
                0.321770042181015,
                0.3241811692714691
            ],
            "min" : [
                -0.3388582170009613,
                -0.3223288655281067,
                -0.3379352390766144
            ],
            "type" : "VEC3"
        },
        {
            "bufferView" : 25,
            "componentType" : 5126,
            "count" : 112,
            "type" : "VEC3"
        },
        {
            "bufferView" : 26,
            "componentType" : 5126,
            "count" : 112,
            "type" : "VEC2"
        },
        {
            "bufferView" : 27,
            "componentType" : 5123,
            "count" : 540,
            "type" : "SCALAR"
        },
        {
            "bufferView" : 29,
            "componentType" : 5126,
            "count" : 112,
            "max" : [
                0,
                0.06224772334098816,
                0
            ],
            "min" : [
                0,
                0.062247708439826965,
                0
            ],
            "type" : "VEC3"
        },
        {
            "bufferView" : 30,
            "componentType" : 5126,
            "count" : 112,
            "type" : "VEC3"
        },
        {
            "bufferView" : 31,
            "componentType" : 5126,
            "count" : 112,
            "max" : [
                0.059811852872371674,
                0.1117216944694519,
                7.450580596923828e-09
            ],
            "min" : [
                -0.09685317426919937,
                -0.037639155983924866,
                0
            ],
            "type" : "VEC3"
        },
        {
            "bufferView" : 32,
            "componentType" : 5126,
            "count" : 112,
            "type" : "VEC3"
        },
        {
            "bufferView" : 33,
            "componentType" : 5126,
            "count" : 112,
            "max" : [
                0.3367387652397156,
                0.321770042181015,
                0.3241811692714691
            ],
            "min" : [
                -0.3388582170009613,
                -0.3223288655281067,
                -0.3379352390766144
            ],
            "type" : "VEC3"
        },
        {
            "bufferView" : 34,
            "componentType" : 5126,
            "count" : 112,
            "type" : "VEC3"
        },
        {
            "bufferView" : 35,
            "componentType" : 5126,
            "count" : 112,
            "type" : "VEC2"
        },
        {
            "bufferView" : 36,
            "componentType" : 5126,
            "count" : 112,
            "max" : [
                0,
                0.06224772334098816,
                0
            ],
            "min" : [
                0,
                0.062247708439826965,
                0
            ],
            "type" : "VEC3"
        },
        {
            "bufferView" : 37,
            "componentType" : 5126,
            "count" : 112,
            "type" : "VEC3"
        },
        {
            "bufferView" : 38,
            "componentType" : 5126,
            "count" : 112,
            "max" : [
                0.09907851368188858,
                0.07373140752315521,
                0
            ],
            "min" : [
                -0.09444832056760788,
                -0.11077268421649933,
                -2.9802322387695312e-08
            ],
            "type" : "VEC3"
        },
        {
            "bufferView" : 39,
            "componentType" : 5126,
            "count" : 112,
            "type" : "VEC3"
        },
        {
            "bufferView" : 40,
            "componentType" : 5126,
            "count" : 61,
            "max" : [
                2.5
            ],
            "min" : [
                0
            ],
            "type" : "SCALAR"
        },
        {
            "bufferView" : 41,
            "componentType" : 5126,
            "count" : 122,
            "type" : "SCALAR"
        },
        {
            "bufferView" : 42,
            "componentType" : 5126,
            "count" : 122,
            "type" : "SCALAR"
        },
        {
            "bufferView" : 43,
            "componentType" : 5126,
            "count" : 122,
            "type" : "SCALAR"
        },
        {
            "bufferView" : 44,
            "componentType" : 5126,
            "count" : 122,
            "type" : "SCALAR"
        },
        {
            "bufferView" : 45,
            "componentType" : 5126,
            "count" : 122,
            "type" : "SCALAR"
        }
    ],
    "bufferViews" : [
        {
            "buffer" : 0,
            "byteLength" : 8472,
            "byteOffset" : 0
        },
        {
            "buffer" : 0,
            "byteLength" : 8472,
            "byteOffset" : 8472
        },
        {
            "buffer" : 0,
            "byteLength" : 5648,
            "byteOffset" : 16944
        },
        {
            "buffer" : 0,
            "byteLength" : 7308,
            "byteOffset" : 22592
        },
        {
            "buffer" : 0,
            "byteLength" : 8472,
            "byteOffset" : 29900
        },
        {
            "buffer" : 0,
            "byteLength" : 8472,
            "byteOffset" : 38372
        },
        {
            "buffer" : 0,
            "byteLength" : 8472,
            "byteOffset" : 46844
        },
        {
            "buffer" : 0,
            "byteLength" : 8472,
            "byteOffset" : 55316
        },
        {
            "buffer" : 0,
            "byteLength" : 2856,
            "byteOffset" : 63788
        },
        {
            "buffer" : 0,
            "byteLength" : 2856,
            "byteOffset" : 66644
        },
        {
            "buffer" : 0,
            "byteLength" : 1904,
            "byteOffset" : 69500
        },
        {
            "buffer" : 0,
            "byteLength" : 2016,
            "byteOffset" : 71404
        },
        {
            "buffer" : 0,
            "byteLength" : 2856,
            "byteOffset" : 73420
        },
        {
            "buffer" : 0,
            "byteLength" : 2856,
            "byteOffset" : 76276
        },
        {
            "buffer" : 0,
            "byteLength" : 2856,
            "byteOffset" : 79132
        },
        {
            "buffer" : 0,
            "byteLength" : 2856,
            "byteOffset" : 81988
        },
        {
            "buffer" : 0,
            "byteLength" : 5256,
            "byteOffset" : 84844
        },
        {
            "buffer" : 0,
            "byteLength" : 5256,
            "byteOffset" : 90100
        },
        {
            "buffer" : 0,
            "byteLength" : 3504,
            "byteOffset" : 95356
        },
        {
            "buffer" : 0,
            "byteLength" : 3744,
            "byteOffset" : 98860
        },
        {
            "buffer" : 0,
            "byteLength" : 5256,
            "byteOffset" : 102604
        },
        {
            "buffer" : 0,
            "byteLength" : 5256,
            "byteOffset" : 107860
        },
        {
            "buffer" : 0,
            "byteLength" : 5256,
            "byteOffset" : 113116
        },
        {
            "buffer" : 0,
            "byteLength" : 5256,
            "byteOffset" : 118372
        },
        {
            "buffer" : 0,
            "byteLength" : 1344,
            "byteOffset" : 123628
        },
        {
            "buffer" : 0,
            "byteLength" : 1344,
            "byteOffset" : 124972
        },
        {
            "buffer" : 0,
            "byteLength" : 896,
            "byteOffset" : 126316
        },
        {
            "buffer" : 0,
            "byteLength" : 1080,
            "byteOffset" : 127212
        },
        {
            "buffer" : 0,
            "byteLength" : 24065,
            "byteOffset" : 128292
        },
        {
            "buffer" : 0,
            "byteLength" : 1344,
            "byteOffset" : 152360
        },
        {
            "buffer" : 0,
            "byteLength" : 1344,
            "byteOffset" : 153704
        },
        {
            "buffer" : 0,
            "byteLength" : 1344,
            "byteOffset" : 155048
        },
        {
            "buffer" : 0,
            "byteLength" : 1344,
            "byteOffset" : 156392
        },
        {
            "buffer" : 0,
            "byteLength" : 1344,
            "byteOffset" : 157736
        },
        {
            "buffer" : 0,
            "byteLength" : 1344,
            "byteOffset" : 159080
        },
        {
            "buffer" : 0,
            "byteLength" : 896,
            "byteOffset" : 160424
        },
        {
            "buffer" : 0,
            "byteLength" : 1344,
            "byteOffset" : 161320
        },
        {
            "buffer" : 0,
            "byteLength" : 1344,
            "byteOffset" : 162664
        },
        {
            "buffer" : 0,
            "byteLength" : 1344,
            "byteOffset" : 164008
        },
        {
            "buffer" : 0,
            "byteLength" : 1344,
            "byteOffset" : 165352
        },
        {
            "buffer" : 0,
            "byteLength" : 244,
            "byteOffset" : 166696
        },
        {
            "buffer" : 0,
            "byteLength" : 488,
            "byteOffset" : 166940
        },
        {
            "buffer" : 0,
            "byteLength" : 488,
            "byteOffset" : 167428
        },
        {
            "buffer" : 0,
            "byteLength" : 488,
            "byteOffset" : 167916
        },
        {
            "buffer" : 0,
            "byteLength" : 488,
            "byteOffset" : 168404
        },
        {
            "buffer" : 0,
            "byteLength" : 488,
            "byteOffset" : 168892
        }
    ],
    "samplers" : [
        {
            "magFilter" : 9729,
            "minFilter" : 9987
        }
    ],
    "buffers" : [
        {
            "byteLength" : 169380,
            "uri" : "data:application/octet-stream;base64,"
        }
    ]
}
